<?xml version="1.0" encoding="utf-8"?>
<!-- Svg Vector Icons : http://www.onlinewebfonts.com/icon -->
<!DOCTYPE svg PUBLIC "-//W3C//DTD SVG 1.1//EN" "http://www.w3.org/Graphics/SVG/1.1/DTD/svg11.dtd">
<svg version="1.1" xmlns="http://www.w3.org/2000/svg" xmlns:xlink="http://www.w3.org/1999/xlink" x="0px" y="0px" viewBox="0 0 256 256" enable-background="new 0 0 256 256" xml:space="preserve">
<metadata> Svg Vector Icons : http://www.onlinewebfonts.com/icon </metadata>
<g><g><path fill="#000000" d="M168.5,217.9h-137c-11.8,0-21.4-9.6-21.4-21.4v-137c0-11.8,9.6-21.4,21.4-21.4h137c11.8,0,21.4,9.6,21.4,21.4v27.9l41.4-30.3c3-2.2,7.1-2.3,10.1-0.2c2.8,1.9,4.6,5.3,4.6,9v124.4c0,3.6-1.8,7.1-4.6,9c-3,2-7.1,2-10.1-0.2l-41.4-30.3v27.9C189.9,208.3,180.3,217.9,168.5,217.9z M31.4,46.6c-7.1,0-12.8,5.8-12.8,12.8v137c0,7.1,5.8,12.8,12.8,12.8h137c7.1,0,12.8-5.8,12.8-12.8v-36.4c0-1.6,0.9-3.1,2.3-3.8c1.5-0.7,3.2-0.6,4.5,0.4l48.2,35.3c0.7-0.2,1.1-0.9,1.1-1.8V65.8c0-0.9-0.4-1.6-0.8-1.8l-48.5,35.3c-1.3,1-3,1.1-4.5,0.4c-1.4-0.7-2.3-2.2-2.3-3.8V59.5c0-7.1-5.8-12.8-12.8-12.8H31.4z"/></g></g>
</svg>